# xmcd
#
# Track frame offsets:
#	150
#	10270
#	26387
#	35085
#	50292
#	62260
#	75690
#	91867
#	101370
#	112482
#	130960
#	144010
#	155530
#	167660
#	181597
#	198362
#	207847
#	221015
#	234427
#	245635
#	257620
#	271735
#	291460
#	304460
#	318700
#
# Disc length: 4422 seconds
#
# Revision: 1
# Processed by: cddbd v1.5.1PL0 Copyright (c) Steve Scherf et al.
# Submitted via: CDex 1.50Beta5
#
DISCID=5e114419
DTITLE=サラ・ボーン - 201 ヴォーカル・スタンダード フロム・A・トゥ・Z Disc 6
DYEAR=2003
DGENRE=
TTITLE0=フランセス・フェイ/夜も昼も
TTITLE1=エラ・ローガン/オールド・デビル・ムーン
TTITLE2=ケイ・スター/スロー・ボート・トゥ・チャイナ
TTITLE3=ジョニー・ハートマン/オン・グリーン・ドルフィン・ストリート
TTITLE4=ビック・ダモン/君住む街で
TTITLE5=ジョー・スタッフォード/明るい表通りで
TTITLE6=ジュディ・ガーランド/虹の彼方に
TTITLE7=フォア・フレッシュメン/ペニーズ・フロム・ヘブン
TTITLE8=ディニング・シスターズ/僕を噂をたてないで
TTITLE9=フォア・フレッシュメン/月光と水玉
TTITLE10=ブロッサム・ディアリー/静かな夜
TTITLE11=ダイナ・ワシントン/夕陽に赤い帆
TTITLE12=ジュディ・ガーランド/ロッカバイ・ユア・ベイビー
TTITLE13=ダコタ・ステイトン/ラウンド・ミッドナイト
TTITLE14=ナット・キング・コール/ルート66
TTITLE15=ケイト・スミス/ス・ワンダフル
TTITLE16=フォア・フレッシュメン/サテン・ドール
TTITLE17=ペギー・リー/セイ・イット・イズント・ソー
TTITLE18=ジュリー・ロンドン/センチメンタル・ジャーニー
TTITLE19=スー・レイニー/九月の雨
TTITLE20=ジョー・スタッフォード/セプテンバー・ソング
TTITLE21=ルー・ロウルズ/いそしぎ
TTITLE22=リナ・ホーン/雨に歌えば
TTITLE23=メル・トーメ/スカイラーク
TTITLE24=ナット・キング・コール/スマイル
EXTD=
EXTT0=
EXTT1=
EXTT2=
EXTT3=
EXTT4=
EXTT5=
EXTT6=
EXTT7=
EXTT8=
EXTT9=
EXTT10=
EXTT11=
EXTT12=
EXTT13=
EXTT14=
EXTT15=
EXTT16=
EXTT17=
EXTT18=
EXTT19=
EXTT20=
EXTT21=
EXTT22=
EXTT23=
EXTT24=
PLAYORDER=
